<svg xmlns="http://www.w3.org/2000/svg" viewBox="0 0 360 480" role="img" aria-labelledby="t"><title id="t">刃行者肖像</title><defs><linearGradient id="bg" x2="1" y2="1"><stop stop-color="#312d31"/><stop offset=".55" stop-color="#875038"/><stop offset="1" stop-color="#e19a54"/></linearGradient><linearGradient id="steel"><stop stop-color="#e8ddc7"/><stop offset=".45" stop-color="#777b7c"/><stop offset="1" stop-color="#2c3033"/></linearGradient><radialGradient id="lava"><stop stop-color="#ffd27b"/><stop offset=".4" stop-color="#e55a2e"/><stop offset="1" stop-color="#6b251d"/></radialGradient></defs><rect width="360" height="480" fill="url(#bg)"/><path d="M0 330L80 264l52 38 55-80 61 82 112-67v243H0z" fill="#2d2b2d" opacity=".78"/><path d="M0 401l94-58 74 42 67-67 125 48v114H0z" fill="#1f2021"/><path d="M45 438c41-24 54-62 80-86 34-31 80-32 118-3 30 24 49 57 77 89z" fill="url(#lava)" opacity=".75"/><circle cx="203" cy="151" r="60" fill="#d6aa86"/><path d="M143 158q5-89 68-93 53 16 58 77l-31-21-27-39-40 51z" fill="#27262b"/><path d="M150 196l54 37 48-42 19 65-21 122-130 4-20-120z" fill="#41454b"/><path d="M129 235l50 33 25-35 24 36 43-37 22 107-55 30-105-6-45-37z" fill="url(#steel)"/><path d="M105 318l-52 129 28 10 72-124zm138-39L326 79l15 13-64 206z" fill="url(#steel)" stroke="#f0d99c" stroke-width="3"/><path d="M286 173l55 20" stroke="#d18a3d" stroke-width="10"/><path d="M175 160l19 5m34-4l19-8" stroke="#30282a" stroke-width="5" stroke-linecap="round"/><path d="M194 194q18 12 34-2" fill="none" stroke="#764236" stroke-width="4"/><path d="M18 78l54-28M291 36l39 21" stroke="#f5bb66" stroke-width="3" opacity=".7"/><circle cx="50" cy="104" r="4" fill="#ffd284"/><circle cx="312" cy="122" r="6" fill="#ff9e4a"/></svg>
