
<svg xmlns="http://www.w3.org/2000/svg" viewBox="0 0 640 640"><defs><linearGradient id="arena" y2="1"><stop stop-color="#28556a"/><stop offset=".5" stop-color="#183144"/><stop offset="1" stop-color="#0b182a"/></linearGradient><radialGradient id="mark"><stop stop-color="#de8d68" stop-opacity=".64"/><stop offset="1" stop-color="#822b56" stop-opacity="0"/></radialGradient></defs><rect width="640" height="640" fill="url(#arena)"/><circle cx="320" cy="210" r="245" fill="url(#mark)"/><path d="M0 512 156 424l143 49 151-56 190 93v130H0z" fill="#0b1b2a" opacity=".8"/><g fill="#912f58" stroke="#f4d47f" stroke-width="10"><path d="m132 160 72-45 72 45v89l-72 45-72-45z"/><path d="m268 160 72-45 72 45v89l-72 45-72-45z"/><path d="m404 160 72-45 72 45v89l-72 45-72-45z"/></g><path d="M80 514 560 92" stroke="#9de4d0" stroke-width="22"/><path d="m542 91 18 1-1 18M98 515l-18-1 1-18" fill="none" stroke="#fff" stroke-width="8"/><path d="M320 438 345 486l53 8-39 37 10 52-49-25-49 25 10-52-39-37 53-8z" fill="#eac66d" stroke="#fff2b0" stroke-width="7"/></svg>
