<svg xmlns="http://www.w3.org/2000/svg" viewBox="0 0 640 640" role="img" aria-labelledby="title desc">
  <title id="title">火烧联营</title><desc id="desc">炎术师立于赤砂高坡，火流沿整片营地连绵奔涌，帐篷、营墙与烟柱在金红夜色中层层展开。</desc>
  <defs>
    <linearGradient id="smoke" x2=".2" y2="1"><stop stop-color="#191a2e"/><stop offset=".45" stop-color="#633547"/><stop offset=".8" stop-color="#a95843"/><stop offset="1" stop-color="#251b2c"/></linearGradient>
    <linearGradient id="fire" x2="0" y2="1"><stop stop-color="#ffefad"/><stop offset=".35" stop-color="#ffc56d"/><stop offset=".7" stop-color="#e77748"/><stop offset="1" stop-color="#983d40"/></linearGradient>
    <radialGradient id="heat"><stop stop-color="#ffd47e" stop-opacity=".8"/><stop offset=".4" stop-color="#f18b52" stop-opacity=".45"/><stop offset="1" stop-color="#e35b47" stop-opacity="0"/></radialGradient>
    <linearGradient id="robe" x2="1" y2="1"><stop stop-color="#a36765"/><stop offset=".6" stop-color="#57374f"/><stop offset="1" stop-color="#211e34"/></linearGradient>
    <g id="tent"><path d="M-44 16-7-30 43 0 13 37Z" fill="#8e514b" stroke="#e0ac73" stroke-width="2"/><path d="M-7-30 13 37-14 26-44 16Z" fill="#4b3345"/><path d="m-7-14-5 37 17 9Z" fill="#ffcb77"/><path d="M-7-46v16m-37 46-8 14M43 0l10 18" stroke="#e5b778" stroke-width="2"/></g>
    <g id="blaze"><path d="M-29 18q-17-35 8-59-3 22 7 28Q-6-68 16-87 2-43 24-23q19 18 7 43Z" fill="url(#fire)"/><path d="M-9 17Q-22-2-5-24-4-3 6-3l6-27Q30 5 12 18Z" fill="#fff0b3"/></g>
  </defs>
  <path d="M0 0h640v640H0Z" fill="url(#smoke)"/>
  <path d="M0 182 68 151 131 173 206 121 290 165 369 119 454 155 529 112 640 161v161H0Z" fill="#29283b"/>
  <path d="M0 301 153 230 337 278 493 194 640 269v371H0Z" fill="#683841"/>
  <path d="M0 466 101 350 243 409 382 293 534 359 640 318v322H0Z" fill="#3e2b3b"/>
  <path d="M133 283q-99-74-53-133 55 28 49 76 86-72 39-152 108 67 64 156 11 44 73 62M414 300q-47-80-4-121 32-16 12-92 103 54 43 130 2 48 67 82" fill="#28273c" opacity=".75"/>
  <path d="M0 256q128-25 268 46t257-38 115 10" fill="none" stroke="#b77959" stroke-width="8"/>
  <path d="m12 251-4-24m23 29-2-31m25 29-1-33m29 32-1-31m26 32 3-35m26 39 4-38m25 44 4-35m31 46 5-33m25 43 5-31m27 44 4-37m265-43 6-30m21 28 7-30m24 22 5-32m27 25 6-32m18 38 10-30" stroke="#483443" stroke-width="8"/>
  <ellipse cx="318" cy="351" rx="309" ry="183" fill="url(#heat)"/>
  <use href="#tent" transform="translate(119 281) scale(.7)"/><use href="#tent" transform="translate(265 321) scale(.76)"/><use href="#tent" transform="translate(378 282) scale(.65)"/><use href="#tent" transform="translate(528 246) scale(.55)"/>
  <use href="#tent" transform="translate(63 394) scale(1.1)"/><use href="#tent" transform="translate(182 414) scale(1.2)"/><use href="#tent" transform="translate(345 391) scale(1.05)"/><use href="#tent" transform="translate(504 339) scale(.9)"/>
  <path d="M-24 479C102 483 49 338 176 343S230 481 355 408 394 276 533 290 611 374 672 341" fill="none" stroke="#c35840" stroke-width="39"/>
  <path d="M-24 479C102 483 49 338 176 343S230 481 355 408 394 276 533 290 611 374 672 341" fill="none" stroke="#ffca6f" stroke-width="11"/>
  <path d="M-24 479C102 483 49 338 176 343S230 481 355 408 394 276 533 290 611 374 672 341" fill="none" stroke="#ffe9a3" stroke-width="3"/>
  <use href="#blaze" transform="translate(40 451) scale(.85)"/><use href="#blaze" transform="translate(108 351) scale(.6)"/><use href="#blaze" transform="translate(219 370) scale(.95)"/><use href="#blaze" transform="translate(293 426) scale(.7)"/>
  <use href="#blaze" transform="translate(399 346) scale(.87)"/><use href="#blaze" transform="translate(493 295) scale(.75)"/><use href="#blaze" transform="translate(589 334) scale(1.1)"/>
  <path d="m0 576 135-73 162 43 129-77 214 37v134H0Z" fill="#1c1d30" stroke="#9b5f5b" stroke-width="3"/>
  <path d="m289 640 101-173 32-91 49-32 49 45-3 104 75 147Z" fill="url(#robe)" stroke="#d19576" stroke-width="3"/>
  <path d="m424 378-7-37 26-36 44 11 21 41-31 32Z" fill="#442f46" stroke="#d69a74" stroke-width="3"/>
  <path d="m441 343 32-18 21 29-24 20-27-9Z" fill="#ad7767"/><path d="m451 348 27 3" stroke="#ffe5a0" stroke-width="3"/>
  <path d="m428 401-56 19-56-45m191 29 40-35 18-78" fill="none" stroke="#9a6263" stroke-width="22"/>
  <path d="m306 381-11-18 8-16 22 22m227-75 2-21 17-5 7 24" fill="#efc18b" stroke="#b27868" stroke-width="3"/>
  <path d="M446 421 394 565l42-15-24 80m61-201 1 137 44 55" fill="none" stroke="#d59873" stroke-width="3"/>
  <path d="M317 369C247 285 151 303 85 230M567 277C620 214 558 136 492 111" fill="none" stroke="#f9bc71" stroke-width="7"/>
  <use href="#blaze" transform="translate(559 274) scale(.8) rotate(13)"/>
  <g fill="#ffe5a0"><path d="m134 188 6-16 4 12-6 9ZM274 222l8-20 3 15-6 10ZM373 154l7-16 2 11-5 9ZM519 427l8-20 3 15-7 11ZM179 485l6-14 2 10-4 8Z"/><circle cx="48" cy="150" r="3"/><circle cx="333" cy="237" r="3"/><circle cx="572" cy="178" r="3"/><circle cx="81" cy="528" r="4"/><circle cx="600" cy="451" r="4"/></g>
  <path d="m60 599 60-20 20 20m86-45 29 15m316 33 39-13" fill="none" stroke="#9d655c" stroke-width="3"/>
</svg>
