<svg xmlns="http://www.w3.org/2000/svg" viewBox="0 0 640 640"><defs><linearGradient id="bg" y2="1"><stop stop-color="#eef0d8"/><stop offset=".45" stop-color="#8fa98a"/><stop offset="1" stop-color="#263d3d"/></linearGradient><linearGradient id="marble" y2="1"><stop stop-color="#fff9cc"/><stop offset=".5" stop-color="#d7cc8a"/><stop offset="1" stop-color="#8b7042"/></linearGradient></defs><rect width="640" height="640" fill="url(#bg)"/><path d="M0 538 104 428l96 56 120-151 101 128 99-112 120 96v195H0z" fill="#172b2b"/><path d="M177 415q-83-134 38-194 105-54 171 0 122 60 39 194" fill="none" stroke="url(#marble)" stroke-width="25"/><path d="M212 407q-36-78 22-109 49-25 86 10 39-35 88-10 58 31 22 109" fill="none" stroke="#f8e9a5" stroke-width="13"/><path d="m173 178 72 76 75-149 75 149 72-76-30 203H203z" fill="url(#marble)" stroke="#fff5bd" stroke-width="8"/><path d="M205 409h230v58H205z" fill="#887145" stroke="#f5dc8e" stroke-width="8"/><path d="M256 439h128" stroke="#86c7b0" stroke-width="9" stroke-linecap="round"/><g fill="#fff2b5"><circle cx="173" cy="178" r="13"/><circle cx="320" cy="105" r="13"/><circle cx="467" cy="178" r="13"/></g></svg>
