<svg xmlns="http://www.w3.org/2000/svg" viewBox="0 0 640 640"><defs><linearGradient id="bg" y2="1"><stop stop-color="#151943"/><stop offset=".48" stop-color="#74629a"/><stop offset="1" stop-color="#211d36"/></linearGradient><radialGradient id="orbit"><stop stop-color="#fff2bc"/><stop offset=".3" stop-color="#d7aa62" stop-opacity=".75"/><stop offset="1" stop-color="#6c5aa1" stop-opacity="0"/></radialGradient></defs><rect width="640" height="640" fill="url(#bg)"/><circle cx="320" cy="282" r="238" fill="url(#orbit)"/><path d="M0 524 104 438l93 63 123-159 99 137 108-120 113 92v189H0z" fill="#15172a"/><g fill="none" stroke="#dfc67e" stroke-width="8"><ellipse cx="320" cy="287" rx="222" ry="92"/><ellipse cx="320" cy="287" rx="222" ry="92" transform="rotate(60 320 287)"/><ellipse cx="320" cy="287" rx="222" ry="92" transform="rotate(-60 320 287)"/></g><circle cx="320" cy="290" r="62" fill="#e3c778" stroke="#fff1af" stroke-width="8"/><path d="M320 228v124M258 290h124" stroke="#49617c" stroke-width="10"/><g fill="#282344" stroke="#d1a870" stroke-width="7"><path d="M94 332q37-48 74 0v145H94z"/><path d="M472 313q37-48 74 0v164h-74z"/></g><circle cx="124" cy="143" r="22" fill="#e3d6ff"/><circle cx="516" cy="155" r="17" fill="#b4e8d7"/></svg>
