
<svg xmlns="http://www.w3.org/2000/svg" viewBox="0 0 640 640"><defs><linearGradient id="bg" y2="1"><stop stop-color="#3c356e"/><stop offset=".48" stop-color="#161f4a"/><stop offset="1" stop-color="#081523"/></linearGradient><radialGradient id="halo"><stop stop-color="#fff6ba" stop-opacity=".72"/><stop offset="1" stop-color="#e69c5a" stop-opacity="0"/></radialGradient><linearGradient id="beam" y2="1"><stop stop-color="#fff5b0" stop-opacity=".95"/><stop offset="1" stop-color="#edc45b" stop-opacity=".06"/></linearGradient></defs><rect width="640" height="640" fill="url(#bg)"/><circle cx="320" cy="148" r="180" fill="url(#halo)"/><g fill="#fff4ae"><circle cx="92" cy="98" r="5"/><circle cx="548" cy="126" r="7"/><circle cx="156" cy="218" r="4"/><circle cx="492" cy="208" r="4"/></g><path d="M86 0h130L320 500 424 0h130L385 640H255z" fill="url(#beam)" opacity=".8"/><path d="m320 128 30 61 68 10-49 48 12 68-61-32-61 32 12-68-49-48 68-10z" fill="#fff3a0" stroke="#fff" stroke-width="7"/><path d="M180 554q140-88 280 0v48H180z" fill="#6c4e83" stroke="#f6d77f" stroke-width="9"/><path d="M245 540v-62l75-46 75 46v62" fill="#d19b52" stroke="#fff1b0" stroke-width="9"/><circle cx="320" cy="472" r="18" fill="#fff6c4"/></svg>
