<svg width="480" height="280" viewBox="0 0 480 280" xmlns="http://www.w3.org/2000/svg"><g transform="translate(0 -40) scale(1.2)"><defs><linearGradient id="b" y2="1"><stop stop-color="#263b4c"/><stop offset="1" stop-color="#7893a5"/></linearGradient><radialGradient id="g"><stop stop-color="#e6f2f1"/><stop offset="1" stop-color="#8cb4c4" stop-opacity="0"/></radialGradient><linearGradient id="m"><stop stop-color="#dce6e5"/><stop offset=".5" stop-color="#71828c"/><stop offset="1" stop-color="#303b43"/></linearGradient></defs><rect width="400" height="300" fill="url(#b)"/><circle cx="200" cy="142" r="135" fill="url(#g)"/><path d="M200 28l119 43v80q0 89-119 133Q81 240 81 151V71z" fill="url(#m)" stroke="#e7d7a0" stroke-width="7"/><path d="M200 57v194q91-39 91-106V90z" fill="#44596a" opacity=".7"/><path d="M200 78l28 45 52 12-36 39 5 54-49-23-49 23 5-54-36-39 52-12z" fill="#d5c38a"/><path d="M24 76l47 19M329 91l48-22M36 232l43-25m246 17l39 26" stroke="#d6ebef" stroke-width="5" opacity=".65"/></g></svg>
