<svg width="480" height="280" viewBox="0 0 480 280" xmlns="http://www.w3.org/2000/svg"><g transform="translate(0 -40) scale(1.2)"><defs><linearGradient id="b" y2="1"><stop stop-color="#4d2b24"/><stop offset=".55" stop-color="#be4f2e"/><stop offset="1" stop-color="#eea544"/></linearGradient><radialGradient id="g"><stop stop-color="#fff1ad"/><stop offset=".35" stop-color="#f49845"/><stop offset="1" stop-color="#b32f29" stop-opacity="0"/></radialGradient></defs><rect width="400" height="300" fill="url(#b)"/><circle cx="200" cy="151" r="146" fill="url(#g)"/><circle cx="200" cy="151" r="28" fill="#fff1b1"/><circle cx="200" cy="151" r="65" fill="none" stroke="#f7c26e" stroke-width="13"/><circle cx="200" cy="151" r="110" fill="none" stroke="#ef8c45" stroke-width="10"/><path d="M200 16v83m0 104v82M65 151h83m104 0h83M105 55l59 59m72 72l59 59m0-190l-59 59m-72 72l-59 59" stroke="#fff0b0" stroke-width="9" stroke-linecap="round"/><path d="M0 267l94-46 62 32 44-27 62 34 67-43 71 34v49H0z" fill="#4b2924"/></g></svg>
